<?xml version="1.0" standalone="no"?>
<!DOCTYPE svg PUBLIC "-//W3C//DTD SVG 20010904//EN"
 "http://www.w3.org/TR/2001/REC-SVG-20010904/DTD/svg10.dtd">
<svg version="1.0" xmlns="http://www.w3.org/2000/svg"
 width="119.000000pt" height="119.000000pt" viewBox="0 0 119.000000 119.000000"
 preserveAspectRatio="xMidYMid meet">
<metadata>
Created by potrace 1.14, written by Peter Selinger 2001-2017
</metadata>
<g transform="translate(0.000000,119.000000) scale(0.100000,-0.100000)"
fill="#000000" stroke="none">
<path d="M258 961 c-230 -93 -319 -352 -193 -567 44 -76 147 -150 235 -169 84
-19 188 -8 254 27 28 14 33 14 82 -8 182 -80 398 6 487 194 29 61 32 76 32
162 0 87 -3 101 -32 160 -38 77 -107 147 -183 187 -50 26 -64 28 -160 28 -87
0 -113 -4 -153 -22 l-49 -23 -41 22 c-60 31 -212 36 -279 9z m667 -53 c68 -35
128 -97 162 -166 36 -76 38 -201 5 -275 -59 -133 -171 -208 -310 -208 -59 0
-127 14 -145 30 -4 4 9 25 29 47 21 21 51 68 68 104 27 58 30 75 31 160 0 82
-4 103 -27 152 -14 31 -45 77 -69 102 -23 26 -39 49 -36 52 20 21 90 34 162
31 62 -3 92 -10 130 -29z"/>
</g>
</svg>
